<svg xmlns="http://www.w3.org/2000/svg" xmlns:xlink="http://www.w3.org/1999/xlink" width="77" height="77" viewBox="0 0 77 77">
  <defs>
    <filter id="Ellipse_133" x="0" y="0" width="77" height="77" filterUnits="userSpaceOnUse">
      <feOffset dy="3" input="SourceAlpha"/>
      <feGaussianBlur stdDeviation="3" result="blur"/>
      <feFlood flood-opacity="0.161"/>
      <feComposite operator="in" in2="blur"/>
      <feComposite in="SourceGraphic"/>
    </filter>
  </defs>
  <g id="Group_3302" data-name="Group 3302" transform="translate(12788 -13919)">
    <g id="Group_3301" data-name="Group 3301" transform="translate(-14495 12950)">
      <g transform="matrix(1, 0, 0, 1, 1707, 969)" filter="url(#Ellipse_133)">
        <g id="Ellipse_133-2" data-name="Ellipse 133" transform="translate(9 6)" fill="#fff" stroke="#284158" stroke-width="1">
          <circle cx="29.5" cy="29.5" r="29.5" stroke="none"/>
          <circle cx="29.5" cy="29.5" r="29" fill="none"/>
        </g>
      </g>
      <g id="message_linear" data-name="message/linear" transform="translate(1730 991)">
        <g id="vuesax_linear_message" data-name="vuesax/linear/message">
          <g id="message">
            <path id="Vector" d="M8.775,21.237H8.1c-5.4,0-8.1-1.249-8.1-7.5V7.5Q0,0,8.1,0H18.9Q27,0,27,7.5v6.246q0,7.5-8.1,7.5h-.675a1.409,1.409,0,0,0-1.08.5l-2.025,2.5a2,2,0,0,1-3.24,0l-2.025-2.5A1.572,1.572,0,0,0,8.775,21.237Z" transform="translate(2 2)" fill="none" stroke="#284158" stroke-linecap="round" stroke-linejoin="round" stroke-width="2"/>
            <path id="Vector-2" data-name="Vector" d="M.495.5H.5" transform="translate(20.169 12.792)" fill="none" stroke="#284158" stroke-linecap="round" stroke-linejoin="round" stroke-width="2"/>
            <path id="Vector-3" data-name="Vector" d="M.495.5H.5" transform="translate(15.001 12.792)" fill="none" stroke="#284158" stroke-linecap="round" stroke-linejoin="round" stroke-width="2"/>
            <path id="Vector-4" data-name="Vector" d="M.495.5H.5" transform="translate(9.833 12.792)" fill="none" stroke="#284158" stroke-linecap="round" stroke-linejoin="round" stroke-width="2"/>
            <path id="Vector-5" data-name="Vector" d="M0,0H31V29H0Z" fill="none" opacity="0"/>
          </g>
        </g>
      </g>
    </g>
  </g>
</svg>
