<svg xmlns="http://www.w3.org/2000/svg" xmlns:xlink="http://www.w3.org/1999/xlink" width="373" height="408" viewBox="0 0 373 408">
  <defs>
    <filter id="surface" x="0" y="0" width="373" height="408" filterUnits="userSpaceOnUse">
      <feOffset dx="8" dy="8" input="SourceAlpha"/>
      <feGaussianBlur stdDeviation="12" result="blur"/>
      <feFlood flood-color="#090e14" flood-opacity="0.4"/>
      <feComposite operator="in" in2="blur"/>
      <feComposite in="SourceGraphic"/>
    </filter>
  </defs>
  <g id="Group_162" data-name="Group 162" transform="translate(-807 -2345.004)">
    <g transform="matrix(1, 0, 0, 1, 807, 2345)" filter="url(#surface)">
      <rect id="surface-2" data-name="surface" width="301" height="336" rx="12" transform="translate(28 28)" fill="#fff"/>
    </g>
    <text id="headline" transform="translate(990 2612)" fill="#273b60" font-size="25" font-family="TeXGyreAdventor-Bold, TeX Gyre Adventor" font-weight="700" letter-spacing="-0.02em"><tspan x="-99" y="0">Adapt to protect </tspan><tspan x="-75" y="39">communities</tspan></text>
    <g id="badge" transform="translate(928.553 2417.714)">
      <rect id="surface-3" data-name="surface" width="114" height="113" rx="48" transform="translate(-0.329 0.286)" fill="rgba(69,121,245,0.03)"/>
      <g id="icon">
        <rect id="frame" width="114" height="113" transform="translate(-0.329 0.286)" fill="none"/>
        <g id="Group_125" data-name="Group 125" transform="translate(-2378.462 -8756.415)">
          <path id="Path_40" data-name="Path 40" d="M132.261,273.5c-2.983.806-5.929,1.611-8.882,2.385-.4.1-.38.332-.39.628a5.276,5.276,0,1,1-.955-3.182c.126.177.241.367.4.605l9.308-2.5a13.826,13.826,0,0,1,3.038-11.482l-5.109-5.125a10.569,10.569,0,0,1-9.061,2.053,10.321,10.321,0,0,1-6.243-4.117,10.664,10.664,0,1,1,16.96.415l5.1,5.095a13.9,13.9,0,0,1,14.658-2.028l2.018-3.663a6.545,6.545,0,0,1-2.334-4.007,6.406,6.406,0,1,1,4.712,5.168c-.342-.085-.554-.089-.744.279-.559,1.081-1.164,2.138-1.775,3.263a14.08,14.08,0,0,1,6.167,10.012l10.809-.4a4.549,4.549,0,0,1,1.665-2.525,4.247,4.247,0,1,1-1.281,5.246.857.857,0,0,0-.992-.584c-3.343.149-6.689.27-10.115.4a14.008,14.008,0,0,1-3.255,8.341l5.159,5.1a10.654,10.654,0,1,1-1.7,1.693l-5.049-5a38.8,38.8,0,0,1-3.549,2,13.217,13.217,0,0,1-10.1.328c-.467-.167-.648-.076-.852.355-.614,1.3-1.278,2.58-1.952,3.927a7.481,7.481,0,0,1,3.177,6.248,7.276,7.276,0,0,1-1.856,4.79,7.467,7.467,0,0,1-12.575-7.633,7.562,7.562,0,0,1,9.34-4.4l2.208-4.4C134.333,277.409,134.333,277.409,132.261,273.5Zm13.088,7.082a11.713,11.713,0,1,0-11.7-11.606A11.721,11.721,0,0,0,145.348,280.584Zm-11.654,6.389a5.324,5.324,0,1,0,3.755,1.6,5.324,5.324,0,0,0-3.755-1.6Zm-4.287-34.986a8.384,8.384,0,0,0-.355-11.476,8.486,8.486,0,0,0-12.357.252,8.32,8.32,0,0,0-.114,11.2,6.561,6.561,0,0,1,3.272-5.725c-1.53-2.231-1.462-4.376.147-5.968a4.272,4.272,0,0,1,5.434-.458,4.142,4.142,0,0,1,1.659,2.339,4.4,4.4,0,0,1-.971,4.092A6.572,6.572,0,0,1,129.407,251.986Zm35.15,39c-1.516-2.561-1.374-4.689.389-6.19a4.259,4.259,0,0,1,5.5-.039,4.149,4.149,0,0,1,1.478,2.6,4.374,4.374,0,0,1-1.086,3.6,6.615,6.615,0,0,1,3.294,5.783,8.492,8.492,0,1,0-13.12-10.777c-3.095,3.961-1.7,8.946.3,10.687A6.5,6.5,0,0,1,164.557,290.982Zm-7.487-39.146a4.259,4.259,0,1,0-3.017-1.252A4.259,4.259,0,0,0,157.07,251.836Zm-39.416,21.3a3.2,3.2,0,1,0,2.27.936A3.194,3.194,0,0,0,117.654,273.131Zm9.418-22.387a4.19,4.19,0,0,0-4.259-3.168,4.124,4.124,0,0,0-3.86,3.168Zm44.72,44.72a4.19,4.19,0,0,0-4.259-3.168,4.124,4.124,0,0,0-3.86,3.168Zm-9.583,2.177c3.308,3,8.46,2.531,10.946,0Zm-44.686-44.725c3.208,3.061,8.667,2.484,10.878,0Zm7.6-9.624a2.13,2.13,0,1,0-2.085,2.154,2.13,2.13,0,0,0,2.085-2.154Zm44.718,44.745a2.13,2.13,0,1,0-2.1,2.13,2.129,2.129,0,0,0,2.1-2.13Zm4.225-22.36a2.13,2.13,0,1,0,2.163,2.074A2.129,2.129,0,0,0,174.067,265.677Z" transform="translate(2291.594 8543.479)" fill="#29445b"/>
          <path id="Path_54" data-name="Path 54" d="M261.429,377.913a5.383,5.383,0,0,1-2.777-4.673,5.116,5.116,0,0,1,1.629-3.869,5.324,5.324,0,0,1,7.712.355,5.419,5.419,0,0,1-1.45,8.209c.2.092.367.165.532.247a7.383,7.383,0,0,1,4.332,6.452c.069.974-.355,1.379-1.333,1.381H257.83c-.946,0-1.367-.408-1.306-1.34a7.358,7.358,0,0,1,4.122-6.389C260.879,378.165,261.116,378.062,261.429,377.913Zm7.7,5.948a5.258,5.258,0,0,0-5.6-4.232c-2.337.177-4.637,2.24-4.681,4.232Zm-1.975-10.63a3.194,3.194,0,1,0-3.166,3.194A3.194,3.194,0,0,0,267.157,373.231Z" transform="translate(2172.981 8434.861)" fill="#29445b" stroke="#29445b" stroke-linecap="round" stroke-linejoin="round" stroke-width="1"/>
        </g>
      </g>
    </g>
  </g>
</svg>
