<svg xmlns="http://www.w3.org/2000/svg" xmlns:xlink="http://www.w3.org/1999/xlink" width="373" height="408" viewBox="0 0 373 408">
  <defs>
    <filter id="surface" x="0" y="0" width="373" height="408" filterUnits="userSpaceOnUse">
      <feOffset dx="8" dy="8" input="SourceAlpha"/>
      <feGaussianBlur stdDeviation="12" result="blur"/>
      <feFlood flood-color="#090e14" flood-opacity="0.4"/>
      <feComposite operator="in" in2="blur"/>
      <feComposite in="SourceGraphic"/>
    </filter>
  </defs>
  <g id="Group_163" data-name="Group 163" transform="translate(-1128 -2345.004)">
    <g transform="matrix(1, 0, 0, 1, 1128, 2345)" filter="url(#surface)">
      <rect id="surface-2" data-name="surface" width="301" height="336" rx="12" transform="translate(28 28)" fill="#fff"/>
    </g>
    <g id="badge" transform="translate(1250.329 2417.714)">
      <rect id="surface-3" data-name="surface" width="114" height="113" rx="48" transform="translate(-0.329 0.286)" fill="rgba(69,121,245,0.03)"/>
      <g id="icon">
        <rect id="frame" width="114" height="113" transform="translate(-0.329 0.286)" fill="none"/>
        <g id="Group_128" data-name="Group 128" transform="translate(-2438.114 -8753.304)">
          <path id="Path_58" data-name="Path 58" d="M167.228,394.945c-.945,1.981-2.559,3.458-3.915,5.123-2.276,2.794-4.636,5.521-6.925,8.3a10.171,10.171,0,0,1-8.168,3.84c-5.047.034-10.1.052-15.143-.014-1.739-.023-2.812.951-3.868,2.065a.565.565,0,0,0-.05.425,3.643,3.643,0,0,1-1.1,3.509c-1.773,1.719-3.525,3.475-5.29,5.209a1.238,1.238,0,0,1-2.058,0q-6.385-6.429-12.766-12.865a1.232,1.232,0,0,1-.014-2.017q2.636-2.656,5.281-5.3a3.694,3.694,0,0,1,2.887-1.15.7.7,0,0,0,.537-.286c3.884-6.812,12.371-8.487,18.477-6.14a2.762,2.762,0,0,0,.966.156q5.993.016,11.985,0a5.128,5.128,0,0,1,4.336,1.875,1.774,1.774,0,0,1,.247-.53c2.165-2.244,4.343-4.475,6.514-6.718a4.674,4.674,0,0,1,7.968,1.562.706.706,0,0,0,.1.138Zm-39.572,17.521c.166-.156.292-.244.394-.358a6.878,6.878,0,0,1,5.589-2.248c4.812.083,9.626.036,14.438.022a7.985,7.985,0,0,0,6.578-3.078c1.017-1.281,2.094-2.515,3.145-3.77q3.319-3.967,6.635-7.937a2.34,2.34,0,0,0-3.423-3.192q-3.761,3.845-7.5,7.717a.87.87,0,0,0-.23.55,4.718,4.718,0,0,1-4.945,5.025c-2.992.025-5.962,0-8.943,0a2.95,2.95,0,0,1-.58-.047,1.15,1.15,0,0,1,.066-2.27,5.241,5.241,0,0,1,.7-.03h8.593a5.16,5.16,0,0,0,.872-.056,2.309,2.309,0,0,0,1.848-2.683,2.364,2.364,0,0,0-2.59-1.948q-6.283,0-12.568-.009a2.75,2.75,0,0,1-1.027-.156,13.394,13.394,0,0,0-7.393-.823,11.644,11.644,0,0,0-8.593,5.715.5.5,0,0,0,.092.742c1.242,1.211,2.461,2.445,3.686,3.672Zm-17.45-2.944,11.837,11.6c1.362-1.434,2.8-2.969,4.265-4.484.809-.837.833-1.372.02-2.187l-7.812-7.812c-.606-.606-1.206-1.219-1.823-1.814a1.11,1.11,0,0,0-1.667-.075C113.419,406.307,111.841,407.9,110.205,409.522Z" transform="translate(2357.467 8414.338)" fill="#29445b" stroke="#29445b" stroke-linecap="round" stroke-linejoin="round" stroke-width="1"/>
          <path id="Path_59" data-name="Path 59" d="M262.508,229.71c.722.156,1.455.259,2.165.452a12.88,12.88,0,1,1-4.89-.344,3.031,3.031,0,0,0,.392-.1Zm-1.162,23.417a10.524,10.524,0,1,0-7.466-3.089,10.537,10.537,0,0,0,7.466,3.089Z" transform="translate(2238.446 8548.581)" fill="#29445b" stroke="#29445b" stroke-linecap="round" stroke-linejoin="round" stroke-width="1"/>
          <path id="Path_64" data-name="Path 64" d="M308.792,262.209c0-.43-.014-.876,0-1.323a1.165,1.165,0,1,1,2.33,0c.019.445,0,.892,0,1.231.575.389,1.094.691,1.562,1.07a1.144,1.144,0,0,1,.223,1.739,1.2,1.2,0,0,1-1.719.048,3.415,3.415,0,0,0-.9-.523,1.158,1.158,0,0,0-1.478.864,1.17,1.17,0,0,0,1,1.4c.25.034.5.041.753.086a3.49,3.49,0,0,1,.981,6.562.624.624,0,0,0-.423.708,5.227,5.227,0,0,1,0,.937,1.134,1.134,0,0,1-1.159,1.081,1.049,1.049,0,0,1-1.141-1.072,1.77,1.77,0,0,0-1.206-2.094,2.921,2.921,0,0,1-.937-.864,1.124,1.124,0,0,1,.075-1.625,1.155,1.155,0,0,1,1.633.047,6.6,6.6,0,0,0,.842.714,1.17,1.17,0,0,0,1.469-.052,1.073,1.073,0,0,0,.381-1.2,1.209,1.209,0,0,0-1.184-.872,3.508,3.508,0,0,1-1.286-6.748C308.656,262.292,308.709,262.253,308.792,262.209Z" transform="translate(2189.591 8523.271)" fill="#29445b" stroke="#29445b" stroke-linecap="round" stroke-linejoin="round" stroke-width="1"/>
        </g>
      </g>
    </g>
    <text id="headline" transform="translate(1312 2632)" fill="#273b60" font-size="25" font-family="TeXGyreAdventor-Bold, TeX Gyre Adventor" font-weight="700" letter-spacing="-0.02em"><tspan x="-95" y="0">Mobilise finance</tspan></text>
  </g>
</svg>
