<svg id="language_black_24dp" xmlns="http://www.w3.org/2000/svg" width="22.09" height="22.09" viewBox="0 0 22.09 22.09">
  <path id="Path_148" data-name="Path 148" d="M0,0H22.09V22.09H0Z" fill="none"/>
  <path id="Path_149" data-name="Path 149" d="M11.195,2a9.2,9.2,0,1,0,6.514,2.69A9.2,9.2,0,0,0,11.195,2Zm6.378,5.522H14.858a14.4,14.4,0,0,0-1.27-3.277,7.391,7.391,0,0,1,3.985,3.277ZM11.2,3.878a12.966,12.966,0,0,1,1.758,3.645H9.446A12.966,12.966,0,0,1,11.2,3.878ZM4.08,13.045a7.2,7.2,0,0,1,0-3.682H7.191A15.2,15.2,0,0,0,7.062,11.2a15.2,15.2,0,0,0,.129,1.841Zm.755,1.841H7.55a14.4,14.4,0,0,0,1.27,3.277,7.351,7.351,0,0,1-3.985-3.277ZM7.55,7.522H4.835A7.351,7.351,0,0,1,8.82,4.246,14.4,14.4,0,0,0,7.55,7.522ZM11.2,18.531a12.966,12.966,0,0,1-1.758-3.645h3.516A12.966,12.966,0,0,1,11.2,18.531Zm2.154-5.486H9.05A13.542,13.542,0,0,1,8.9,11.2a13.424,13.424,0,0,1,.15-1.837h4.308a13.424,13.424,0,0,1,.147,1.841,13.542,13.542,0,0,1-.147,1.841Zm.23,5.117a14.4,14.4,0,0,0,1.27-3.277h2.715a7.391,7.391,0,0,1-3.981,3.277Zm1.629-5.117a15.2,15.2,0,0,0,.129-1.841,15.2,15.2,0,0,0-.129-1.841h3.111a7.2,7.2,0,0,1,0,3.682Z" transform="translate(-0.159 -0.159)" fill="#fff"/>
</svg>
