<svg xmlns="http://www.w3.org/2000/svg" width="279.438" height="82.795" viewBox="0 0 279.438 82.795">
  <g id="Group_3241" data-name="Group 3241" transform="translate(-1.023 -1.013)">
    <path id="Path_2616" data-name="Path 2616" d="M270.694,83.6H10.36A9.671,9.671,0,0,1,.809,73.806V10.594A9.671,9.671,0,0,1,10.36.8H270.694a9.672,9.672,0,0,1,9.551,9.789V73.806a9.672,9.672,0,0,1-9.551,9.789" transform="translate(0.215 0.213)"/>
    <path id="Path_2619" data-name="Path 2619" d="M77.023,18.374l-1.047-3.28c-.257-.81-.474-1.714-.672-2.485h-.04c-.193.771-.4,1.695-.627,2.485l-1.028,3.28Zm-3.809,1.833-1.146,3.774h-2.51l4.268-13.309h3.1l4.323,13.309h-2.6l-1.205-3.774" transform="translate(18.414 2.825)" fill="#fff"/>
    <path id="Path_2620" data-name="Path 2620" d="M82.222,13.594l1.561,4.871c.277.85.469,1.62.647,2.411h.059c.178-.79.4-1.541.652-2.411l1.541-4.871h2.544l-3.671,9.614H83.171l-3.577-9.614" transform="translate(21.07 3.598)" fill="#fff"/>
    <path id="Path_2621" data-name="Path 2621" d="M94.211,18.55c-1.719-.02-3.359.336-3.359,1.8a1.276,1.276,0,0,0,1.383,1.383,1.989,1.989,0,0,0,1.912-1.324,1.521,1.521,0,0,0,.064-.534Zm2.366,2.391a12.891,12.891,0,0,0,.158,2.307H94.542l-.173-1.062H94.3a3.511,3.511,0,0,1-2.841,1.28,2.849,2.849,0,0,1-3.019-2.86c0-2.411,2.149-3.651,5.7-3.631v-.158c0-.632-.252-1.68-1.951-1.68a5.1,5.1,0,0,0-2.589.711l-.474-1.581a6.935,6.935,0,0,1,3.478-.845c3.078,0,3.967,1.951,3.967,4.066" transform="translate(23.413 3.553)" fill="#fff"/>
    <path id="Path_2622" data-name="Path 2622" d="M97.619,14.433h2.426v9.614H97.619Zm1.2-1.383a1.373,1.373,0,1,1,.025,0" transform="translate(25.806 2.759)" fill="#fff"/>
    <path id="Path_2623" data-name="Path 2623" d="M102.27,24.134h2.43V10.094h-2.43Zm0,0" transform="translate(27.073 2.672)" fill="#fff"/>
    <path id="Path_2624" data-name="Path 2624" d="M112.2,18.55c-1.719-.02-3.359.336-3.359,1.8a1.276,1.276,0,0,0,1.384,1.383,1.994,1.994,0,0,0,1.916-1.324,1.637,1.637,0,0,0,.059-.534Zm2.366,2.391a12.856,12.856,0,0,0,.158,2.307h-2.188l-.178-1.062H112.3a3.528,3.528,0,0,1-2.846,1.28,2.851,2.851,0,0,1-3.018-2.86c0-2.411,2.154-3.651,5.705-3.631v-.158c0-.632-.257-1.68-1.957-1.68a5.066,5.066,0,0,0-2.584.711l-.474-1.581a6.916,6.916,0,0,1,3.473-.845c3.078,0,3.967,1.951,3.967,4.066" transform="translate(28.176 3.553)" fill="#fff"/>
    <path id="Path_2625" data-name="Path 2625" d="M118.029,20.162a2.7,2.7,0,0,0,.059.573,2.219,2.219,0,0,0,2.149,1.7c1.521,0,2.451-1.206,2.451-3.157,0-1.7-.811-3.083-2.431-3.083a2.255,2.255,0,0,0-2.15,1.778,2.927,2.927,0,0,0-.078.632ZM115.6,10.094h2.431V15.84h.039a3.47,3.47,0,0,1,3.078-1.536c2.351,0,4.026,1.951,4.007,4.876,0,3.453-2.189,5.173-4.362,5.173a3.3,3.3,0,0,1-3.039-1.66h-.039l-.119,1.443H115.52c.039-.652.078-1.719.078-2.688" transform="translate(30.581 2.672)" fill="#fff"/>
    <path id="Path_2626" data-name="Path 2626" d="M125.4,24.134h2.426V10.094H125.4Zm0,0" transform="translate(33.196 2.672)" fill="#fff"/>
    <path id="Path_2627" data-name="Path 2627" d="M136.165,17.428a2.068,2.068,0,0,0-1.991-2.351,2.378,2.378,0,0,0-2.233,2.351Zm-4.224,1.695c.059,1.739,1.423,2.49,2.964,2.49a7.735,7.735,0,0,0,2.662-.435l.357,1.655a8.553,8.553,0,0,1-3.355.613c-3.121,0-4.96-1.912-4.96-4.851,0-2.668,1.621-5.172,4.7-5.172,3.118,0,4.145,2.564,4.145,4.678a5.914,5.914,0,0,1-.078,1.023" transform="translate(34.31 3.553)" fill="#fff"/>
    <path id="Path_2628" data-name="Path 2628" d="M147.166,21.712c1.377,0,2.346-1.344,2.346-3.3,0-1.5-.672-3.241-2.327-3.241-1.719,0-2.411,1.68-2.411,3.28,0,1.853.928,3.256,2.366,3.256Zm-.08,1.759a4.648,4.648,0,0,1-4.816-4.955,4.743,4.743,0,0,1,4.974-5.093,4.612,4.612,0,0,1,4.777,4.935,4.76,4.76,0,0,1-4.915,5.113" transform="translate(37.662 3.553)" fill="#fff"/>
    <path id="Path_2629" data-name="Path 2629" d="M152.253,16.5c0-1.107-.034-2.035-.073-2.865h2.11l.118,1.443h.059a3.531,3.531,0,0,1,3.083-1.655c1.675,0,3.414,1.082,3.414,4.125v5.7h-2.431V17.824c0-1.383-.513-2.431-1.833-2.431a2.039,2.039,0,0,0-1.9,1.423,2.239,2.239,0,0,0-.119.771v5.662H152.25" transform="translate(40.285 3.553)" fill="#fff"/>
    <path id="Path_2630" data-name="Path 2630" d="M168.759,11.641v2.465h2.307v1.818h-2.307v4.224c0,1.186.316,1.778,1.239,1.778a3.166,3.166,0,0,0,.949-.1l.039,1.833a5.2,5.2,0,0,1-1.758.257,2.8,2.8,0,0,1-2.091-.786,3.8,3.8,0,0,1-.77-2.707v-4.5H165V14.106h1.363V12.313" transform="translate(43.68 3.081)" fill="#fff"/>
    <path id="Path_2631" data-name="Path 2631" d="M171.934,10.094h2.43V15.82h.04a3.191,3.191,0,0,1,1.2-1.087,3.457,3.457,0,0,1,1.674-.43c1.64,0,3.354,1.082,3.354,4.165v5.667h-2.426v-5.41c0-1.383-.513-2.45-1.857-2.45a2.026,2.026,0,0,0-1.892,1.363,2.167,2.167,0,0,0-.1.731v5.765h-2.43" transform="translate(45.515 2.672)" fill="#fff"/>
    <path id="Path_2632" data-name="Path 2632" d="M187.618,17.428a2.069,2.069,0,0,0-2-2.351,2.373,2.373,0,0,0-2.228,2.351Zm-4.224,1.695c.059,1.739,1.418,2.49,2.959,2.49a7.7,7.7,0,0,0,2.663-.435l.36,1.655a8.561,8.561,0,0,1-3.36.613c-3.116,0-4.954-1.912-4.954-4.851,0-2.668,1.62-5.172,4.7-5.172,3.118,0,4.146,2.564,4.146,4.678a5.89,5.89,0,0,1-.08,1.023" transform="translate(47.931 3.553)" fill="#fff"/>
    <path id="Path_2633" data-name="Path 2633" d="M55.981,34.569a11.828,11.828,0,0,1,5.642-9.94,12.128,12.128,0,0,0-9.559-5.168c-4.017-.42-7.915,2.411-9.96,2.411-2.09,0-5.247-2.366-8.641-2.3A12.732,12.732,0,0,0,22.752,26.1c-4.624,8.018-1.176,19.8,3.261,26.278,2.223,3.172,4.812,6.719,8.206,6.59,3.32-.138,4.56-2.114,8.566-2.114,3.972,0,5.138,2.114,8.6,2.035,3.562-.059,5.8-3.186,7.944-6.393a26.05,26.05,0,0,0,3.636-7.4,11.455,11.455,0,0,1-6.986-10.533" transform="translate(5.442 5.141)" fill="#fff"/>
    <path id="Path_2634" data-name="Path 2634" d="M45.029,17.836A11.649,11.649,0,0,0,47.7,9.477a11.9,11.9,0,0,0-7.677,3.972A11.089,11.089,0,0,0,37.282,21.5a9.8,9.8,0,0,0,7.746-3.661" transform="translate(9.853 2.509)" fill="#fff"/>
    <path id="Path_2635" data-name="Path 2635" d="M83.378,44.648l-2.292-7.079q-.363-1.082-1.368-5.1h-.079c-.267,1.151-.7,2.855-1.289,5.1L76.1,44.648ZM91.3,55.956H86.674L84.14,47.992h-8.8l-2.42,7.964H68.414l8.734-27.113h5.385" transform="translate(18.11 7.636)" fill="#fff"/>
    <path id="Path_2636" data-name="Path 2636" d="M103.776,44.6a8.048,8.048,0,0,0-1.29-4.708,4.451,4.451,0,0,0-3.779-1.932,4.508,4.508,0,0,0-2.915,1.067,5,5,0,0,0-1.714,2.8,5.638,5.638,0,0,0-.2,1.319V46.41a5.226,5.226,0,0,0,1.3,3.6,4.329,4.329,0,0,0,3.4,1.467,4.42,4.42,0,0,0,3.819-1.892,8.266,8.266,0,0,0,1.374-4.985m4.427-.163a11.106,11.106,0,0,1-2.7,7.885A7.881,7.881,0,0,1,99.513,54.9a6,6,0,0,1-5.553-2.776h-.079v10.3H89.533V41.341q0-3.135-.158-6.437h3.819l.242,3.1h.084a7.722,7.722,0,0,1,12.366-.766,10.79,10.79,0,0,1,2.317,7.2" transform="translate(23.659 9.134)" fill="#fff"/>
    <path id="Path_2637" data-name="Path 2637" d="M121.552,44.6a8.055,8.055,0,0,0-1.289-4.708,4.454,4.454,0,0,0-3.78-1.932,4.516,4.516,0,0,0-2.914,1.067,4.93,4.93,0,0,0-1.7,2.8,5.453,5.453,0,0,0-.2,1.319V46.41a5.225,5.225,0,0,0,1.3,3.6,4.334,4.334,0,0,0,3.4,1.467,4.432,4.432,0,0,0,3.818-1.892,8.328,8.328,0,0,0,1.368-4.985m4.421-.163a11.1,11.1,0,0,1-2.693,7.885,7.87,7.87,0,0,1-5.992,2.574,6.009,6.009,0,0,1-5.553-2.776h-.073v10.3h-4.348V41.341q0-3.135-.158-6.437h3.819l.242,3.1h.085a7.721,7.721,0,0,1,12.365-.766,10.779,10.779,0,0,1,2.307,7.2" transform="translate(28.367 9.134)" fill="#fff"/>
    <path id="Path_2638" data-name="Path 2638" d="M145.44,48.438a7.233,7.233,0,0,1-2.411,5.632q-2.653,2.372-7.381,2.371a12.966,12.966,0,0,1-7.036-1.69l1.008-3.616a11.943,11.943,0,0,0,6.284,1.724,5.939,5.939,0,0,0,3.823-1.1,3.629,3.629,0,0,0,1.363-2.964,3.783,3.783,0,0,0-1.121-2.781,10.564,10.564,0,0,0-3.745-2.095q-7.122-2.66-7.119-7.776a6.879,6.879,0,0,1,2.5-5.479,9.849,9.849,0,0,1,6.635-2.139,13.2,13.2,0,0,1,6.155,1.29l-1.088,3.542a10.682,10.682,0,0,0-5.187-1.25,5.236,5.236,0,0,0-3.577,1.126,3.234,3.234,0,0,0-1.088,2.455A3.3,3.3,0,0,0,134.7,38.34a14.15,14.15,0,0,0,3.942,2.1,13.362,13.362,0,0,1,5.147,3.3,6.922,6.922,0,0,1,1.65,4.708" transform="translate(34.047 7.551)" fill="#fff"/>
    <path id="Path_2639" data-name="Path 2639" d="M155.762,39.1h-4.788v9.49q0,3.624,2.54,3.621a7.814,7.814,0,0,0,1.927-.2l.118,3.3a9.639,9.639,0,0,1-3.374.484,5.227,5.227,0,0,1-4.026-1.566q-1.446-1.571-1.448-5.271V39.1h-2.856V35.839h2.856V32.262l4.263-1.289v4.866h4.788" transform="translate(38.082 8.199)" fill="#fff"/>
    <path id="Path_2640" data-name="Path 2640" d="M169.853,44.661a8.806,8.806,0,0,0-1.171-4.639,4.28,4.28,0,0,0-3.9-2.342,4.352,4.352,0,0,0-3.981,2.342,8.978,8.978,0,0,0-1.161,4.723,8.773,8.773,0,0,0,1.161,4.634,4.384,4.384,0,0,0,3.947,2.342,4.337,4.337,0,0,0,3.9-2.381,8.778,8.778,0,0,0,1.205-4.678m4.506-.138a10.706,10.706,0,0,1-2.575,7.4,9.183,9.183,0,0,1-7.158,2.974,8.754,8.754,0,0,1-6.862-2.855,10.407,10.407,0,0,1-2.548-7.2,10.6,10.6,0,0,1,2.633-7.44,9.1,9.1,0,0,1,7.094-2.9,8.936,8.936,0,0,1,6.922,2.855,10.317,10.317,0,0,1,2.5,7.164" transform="translate(41.089 9.134)" fill="#fff"/>
    <path id="Path_2641" data-name="Path 2641" d="M183.705,38.728a7.557,7.557,0,0,0-1.368-.119,4.114,4.114,0,0,0-3.543,1.729,6.532,6.532,0,0,0-1.083,3.858V54.458H173.37l.034-13.393q0-3.386-.158-6.161h3.784l.158,3.745h.114a6.717,6.717,0,0,1,2.174-3.1,5.278,5.278,0,0,1,3.142-1.047,7.187,7.187,0,0,1,1.088.079" transform="translate(45.863 9.134)" fill="#fff"/>
    <path id="Path_2642" data-name="Path 2642" d="M196.367,42.639a5.918,5.918,0,0,0-.84-3.34,3.808,3.808,0,0,0-3.464-1.813,4.132,4.132,0,0,0-3.458,1.774,6.421,6.421,0,0,0-1.28,3.379Zm4.139,1.126a10.612,10.612,0,0,1-.153,1.971H187.326a5.644,5.644,0,0,0,1.887,4.427,6.442,6.442,0,0,0,4.265,1.364,14.414,14.414,0,0,0,5.27-.924l.683,3.019a16.444,16.444,0,0,1-6.561,1.21,9.467,9.467,0,0,1-7.138-2.683,9.88,9.88,0,0,1-2.594-7.178,11.176,11.176,0,0,1,2.416-7.361,8.309,8.309,0,0,1,6.832-3.137,7.285,7.285,0,0,1,6.4,3.137,10.548,10.548,0,0,1,1.719,6.156" transform="translate(48.481 9.126)" fill="#fff"/>
  </g>
</svg>
