<svg xmlns="http://www.w3.org/2000/svg" xmlns:xlink="http://www.w3.org/1999/xlink" width="373" height="408" viewBox="0 0 373 408">
  <defs>
    <filter id="surface" x="0" y="0" width="373" height="408" filterUnits="userSpaceOnUse">
      <feOffset dx="8" dy="8" input="SourceAlpha"/>
      <feGaussianBlur stdDeviation="12" result="blur"/>
      <feFlood flood-color="#090e14" flood-opacity="0.4"/>
      <feComposite operator="in" in2="blur"/>
      <feComposite in="SourceGraphic"/>
    </filter>
  </defs>
  <g id="Group_167" data-name="Group 167" transform="translate(-1449 -2726.004)">
    <g transform="matrix(1, 0, 0, 1, 1449, 2726)" filter="url(#surface)">
      <rect id="surface-2" data-name="surface" width="301" height="336" rx="12" transform="translate(28 28)" fill="#fff"/>
    </g>
    <g id="badge" transform="translate(1571.329 2798.714)">
      <rect id="surface-3" data-name="surface" width="114" height="113" rx="48" transform="translate(-0.329 0.286)" fill="rgba(69,121,245,0.03)"/>
      <g id="icon">
        <rect id="frame" width="114" height="113" transform="translate(-0.329 0.286)" fill="none"/>
        <g id="Group_126" data-name="Group 126" transform="translate(-2589.896 -8755.231)">
          <path id="Path_79" data-name="Path 79" d="M106.483,258.653a3.022,3.022,0,0,0,.149-.332,10.043,10.043,0,0,1,4.756-5.893c2.652-1.52,5.3-3.068,7.957-4.585a.927.927,0,0,0,.539-.928c-.018-3.065,0-6.133-.012-9.2A10.018,10.018,0,0,1,122.5,230.8c.872-.98,1.54-.976,2.42.008a9.483,9.483,0,0,1,2.568,6.3q.075,4.754,0,9.508a1.336,1.336,0,0,0,.794,1.349c2.544,1.427,5.056,2.916,7.6,4.355a10.059,10.059,0,0,1,4.918,6.057,1.242,1.242,0,0,1-1.033,1.8,9.868,9.868,0,0,1-7.325-.995c-1.467-.809-2.907-1.669-4.36-2.506-.177-.1-.36-.194-.625-.332V274.8l.065.033c.07-.22.148-.438.207-.663q.995-3.682,2-7.365a2.984,2.984,0,0,1,3.163-2.42h28.345a2.992,2.992,0,0,1,3.149,2.433q2.286,8.411,4.567,16.823c.64,2.365-.681,4.079-3.141,4.079H151.771v3.519H168.41a3.488,3.488,0,0,1,.681.028,1.039,1.039,0,0,1,.953.925,3.069,3.069,0,0,1-.411,1.213c-.056.129-.242.2-.368.3H106.483v-1.616a1.858,1.858,0,0,1,1.823-.867c3.624.033,7.249.015,10.874.015H120V279.516a5.362,5.362,0,0,1,.03-.744,1.132,1.132,0,0,1,1.1-.995c.814-.04,1.28.476,1.281,1.455q.008,5.593,0,11.184c0,.259.022.519.033.791h2.486c.013-.224.036-.424.036-.627v-35.17c0-.166.03-.419-.056-.474-.418-.269-.874-.678-1.311-.675a1.263,1.263,0,0,0-1.185,1.237V281.18a5.968,5.968,0,0,1-.03.806,1.135,1.135,0,0,1-1.1.995c-.814.041-1.28-.474-1.281-1.455-.006-3.459-.006-20.918,0-24.377,0-.237-.02-.476-.035-.817-.3.166-.5.267-.681.378-1.363.786-2.72,1.578-4.088,2.357a10.151,10.151,0,0,1-7.184,1.2,1.936,1.936,0,0,1-1.535-.995Zm20.959,32.552h14.851v-3.448H127.442Zm20.851-5.967h8.068l-.608-4.431h-7.459Zm-2.52.013v-4.486h-.718c-1.989,0-3.978.025-5.956-.015-.6-.013-.862.138-.862.761a10.438,10.438,0,0,1-.174,1.288c-.1.806-.2,1.613-.3,2.45Zm13.057.02h7.345a.471.471,0,0,0,.5-.627c-.323-1.293-.68-2.579-1.013-3.829h-7.436Zm-22.97-4.406c-.1-.05-.138-.083-.166-.083-2.3,0-4.595-.018-6.891,0-.146,0-.373.229-.423.393-.318,1.069-.607,2.155-.885,3.227-.166.63.017.865.648.867,2.215,0,4.429,0,6.644.012.4,0,.569-.131.564-.525a3.447,3.447,0,0,1,.07-.5C135.565,283.125,135.714,281.984,135.861,280.865Zm-12.15-47.646a6.2,6.2,0,0,0-1.308,3.39c-.088,2.937-.07,5.88-.091,8.818a.352.352,0,0,0,.045.134h2.689a1.546,1.546,0,0,0,.051-.3c0-2.589.018-5.178-.01-7.768a7.272,7.272,0,0,0-1.376-4.273Zm31.7,45.077c-.187-1.374-.388-2.679-.534-3.99-.046-.409-.2-.507-.58-.5-1.862.017-3.723,0-5.585.01a2.877,2.877,0,0,0-.406.056V278.3Zm-28.768-25.277,2.094,1.21c1.684.971,3.357,1.966,5.059,2.9a7.284,7.284,0,0,0,4.252.872c-.134-.275-.212-.461-.313-.633a7.588,7.588,0,0,0-2.844-2.8l-6.559-3.781a2.866,2.866,0,0,0-.332-.149Zm38.336,25.293c-.4-1.475-.759-2.831-1.16-4.174a.681.681,0,0,0-.529-.322c-1.137-.03-2.276-.015-3.413-.015h-2.6c.2,1.467.37,2.856.583,4.238.017.111.293.254.454.259.806.027,1.613.012,2.42.013Zm-25.693-4.476-.6,4.437h7.09v-4.442Zm-2.46-.028c-2.108,0-4.129-.008-6.151.018-.146,0-.366.232-.418.4-.245.787-.446,1.588-.663,2.387-.146.547-.283,1.1-.433,1.674h7.05ZM109.4,257.97a7.23,7.23,0,0,0,4.517-.98c2.19-1.251,4.373-2.52,6.556-3.783a3.18,3.18,0,0,0,.283-.2l-1.374-2.38c-1.971,1.137-3.978,2.279-5.976,3.459a19.731,19.731,0,0,0-2.306,1.558A5.994,5.994,0,0,0,109.4,257.97Zm38.906,8.9v4.449h6.165l-.607-4.449Zm-2.511-.027h-4.409c-1.134,0-1.145,0-1.3,1.094s-.293,2.235-.441,3.37H145.8Zm11.141,4.476h6.143L162,267.329a.648.648,0,0,0-.756-.486c-1.034.012-2.069,0-3.1,0h-1.81Zm-19.165-4.476c-1.749,0-3.4-.01-5.049.015a.661.661,0,0,0-.522.332c-.409,1.354-.774,2.722-1.174,4.164H136.7c.139,0,.28-.025.461-.041Zm11.494,20.937h-4.434v3.41h4.434Zm-23.75-38.022a1.812,1.812,0,1,0-1.842,1.781A1.812,1.812,0,0,0,125.514,249.757Z" transform="translate(2506.193 8548.338)" fill="#29445b" stroke="#29445b" stroke-linecap="round" stroke-linejoin="round" stroke-width="1"/>
          <path id="Path_81" data-name="Path 81" d="M353.28,286.079a7.33,7.33,0,1,1,7.26,7.352A7.33,7.33,0,0,1,353.28,286.079Zm12.213.035a2.026,2.026,0,1,0,.007,0Z" transform="translate(2300.303 8507.711)" fill="#29445b" stroke="#29445b" stroke-linecap="round" stroke-linejoin="round" stroke-width="1"/>
          <path id="Path_82" data-name="Path 82" d="M392.529,232.9c0,.5.017.995,0,1.492a1.22,1.22,0,1,1-2.438-.023q-.032-1.492,0-2.984a1.22,1.22,0,1,1,2.438.023C392.549,231.906,392.529,232.4,392.529,232.9Z" transform="translate(2269.607 8548.29)" fill="#29445b" stroke="#29445b" stroke-linecap="round" stroke-linejoin="round" stroke-width="1"/>
          <path id="Path_83" data-name="Path 83" d="M459.783,318.033c-.5,0-.995.02-1.492,0a1.236,1.236,0,0,1-1.242-1.215,1.222,1.222,0,0,1,1.235-1.218q1.52-.04,3.042,0a1.225,1.225,0,0,1,1.242,1.213,1.251,1.251,0,0,1-1.235,1.227H459.78Z" transform="translate(2213.734 8477.003)" fill="#29445b" stroke="#29445b" stroke-linecap="round" stroke-linejoin="round" stroke-width="1"/>
          <path id="Path_84" data-name="Path 84" d="M307.351,318.038h-1.3a1.271,1.271,0,0,1-1.407-1.242,1.249,1.249,0,0,1,1.377-1.207c.91-.012,1.823-.01,2.732,0a1.262,1.262,0,0,1,1.407,1.24c-.013.723-.573,1.2-1.44,1.21C308.263,318.043,307.807,318.038,307.351,318.038Z" transform="translate(2340.881 8477.002)" fill="#29445b" stroke="#29445b" stroke-linecap="round" stroke-linejoin="round" stroke-width="1"/>
          <path id="Path_85" data-name="Path 85" d="M392.538,385.366c0,.456.01.912,0,1.366a1.23,1.23,0,1,1-2.445-.031c-.012-.932-.013-1.863,0-2.795a1.249,1.249,0,0,1,1.237-1.346,1.263,1.263,0,0,1,1.208,1.376C392.546,384.414,392.538,384.89,392.538,385.366Z" transform="translate(2269.6 8421.126)" fill="#29445b" stroke="#29445b" stroke-linecap="round" stroke-linejoin="round" stroke-width="1"/>
          <path id="Path_86" data-name="Path 86" d="M334.5,363.99a5.6,5.6,0,0,1-.565.956c-.663.709-1.356,1.394-2.057,2.067a1.217,1.217,0,1,1-1.721-1.714q1.056-1.092,2.155-2.142a1.028,1.028,0,0,1,1.363-.176A5.056,5.056,0,0,1,334.5,363.99Z" transform="translate(2319.936 8437.613)" fill="#29445b" stroke="#29445b" stroke-linecap="round" stroke-linejoin="round" stroke-width="1"/>
          <path id="Path_87" data-name="Path 87" d="M442.161,256.271a6,6,0,0,1-.587,1c-.646.7-1.326,1.366-2.011,2.024a1.2,1.2,0,0,1-1.813.045,1.178,1.178,0,0,1,.1-1.769c.69-.713,1.4-1.411,2.108-2.1a1.063,1.063,0,0,1,1.368-.2A4.6,4.6,0,0,1,442.161,256.271Z" transform="translate(2230.132 8527.455)" fill="#29445b" stroke="#29445b" stroke-linecap="round" stroke-linejoin="round" stroke-width="1"/>
          <path id="Path_88" data-name="Path 88" d="M438.464,362a5.64,5.64,0,0,1,1.006.579c.7.646,1.363,1.326,2.024,2.011a1.226,1.226,0,1,1-1.729,1.717q-1.044-1.018-2.057-2.065a1.049,1.049,0,0,1-.235-1.358A5.5,5.5,0,0,1,438.464,362Z" transform="translate(2230.2 8438.277)" fill="#29445b" stroke="#29445b" stroke-linecap="round" stroke-linejoin="round" stroke-width="1"/>
          <path id="Path_89" data-name="Path 89" d="M334.413,258.73c-.247.315-.441.772-.776.925a1.346,1.346,0,0,1-1.192-.05,28.421,28.421,0,0,1-2.518-2.472,1.159,1.159,0,0,1,.111-1.532,1.184,1.184,0,0,1,1.578-.116c.829.768,1.631,1.583,2.415,2.407A3.156,3.156,0,0,1,334.413,258.73Z" transform="translate(2319.986 8527.345)" fill="#29445b" stroke="#29445b" stroke-linecap="round" stroke-linejoin="round" stroke-width="1"/>
          <path id="Path_108" data-name="Path 108" d="M189.332,486.544a1.2,1.2,0,1,1,1.212-1.2,1.16,1.16,0,0,1-1.212,1.2Z" transform="translate(2438.061 8336.375)" fill="#29445b" stroke="#29445b" stroke-linecap="round" stroke-linejoin="round" stroke-width="1"/>
        </g>
      </g>
    </g>
    <text id="headline" transform="translate(1627 2993)" fill="#273b60" font-size="25" font-family="TeXGyreAdventor-Bold, TeX Gyre Adventor" font-weight="700" letter-spacing="-0.02em"><tspan x="-134" y="0">encourage investment </tspan><tspan x="-80" y="39">in renewables</tspan></text>
  </g>
</svg>
