<svg xmlns="http://www.w3.org/2000/svg" xmlns:xlink="http://www.w3.org/1999/xlink" width="373" height="408" viewBox="0 0 373 408">
  <defs>
    <filter id="surface" x="0" y="0" width="373" height="408" filterUnits="userSpaceOnUse">
      <feOffset dx="8" dy="8" input="SourceAlpha"/>
      <feGaussianBlur stdDeviation="12" result="blur"/>
      <feFlood flood-color="#090e14" flood-opacity="0.4"/>
      <feComposite operator="in" in2="blur"/>
      <feComposite in="SourceGraphic"/>
    </filter>
  </defs>
  <g id="Group_164" data-name="Group 164" transform="translate(-1449 -2345.004)">
    <g transform="matrix(1, 0, 0, 1, 1449, 2345)" filter="url(#surface)">
      <rect id="surface-2" data-name="surface" width="301" height="336" rx="12" transform="translate(28 28)" fill="#fff"/>
    </g>
    <g id="badge" transform="translate(1571.329 2417.714)">
      <rect id="surface-3" data-name="surface" width="114" height="113" rx="48" transform="translate(-0.329 0.286)" fill="rgba(69,121,245,0.03)"/>
      <g id="icon">
        <rect id="frame" width="114" height="113" transform="translate(-0.329 0.286)" fill="none"/>
        <g id="_-Product-Icons" data-name="ðŸ”-Product-Icons" transform="translate(24.604 28.329)">
          <g id="ic_fluent_people_community_24_regular">
            <path id="_-Color" data-name="ðŸŽ¨-Color" d="M42.113,40.754a5.506,5.506,0,0,1,5.506,5.506v3.027c.367,6.887-4.754,10.373-13.944,10.373-9.155,0-14.375-3.43-14.375-10.254V46.259a5.506,5.506,0,0,1,5.506-5.506Zm0,4.719H24.81a.786.786,0,0,0-.787.787v3.146c0,3.7,2.79,5.534,9.649,5.534,6.821,0,9.425-1.773,9.228-5.528V46.259a.786.786,0,0,0-.787-.786ZM7.506,25.023H21.273a12.7,12.7,0,0,0-.3,4.717H7.505a.786.786,0,0,0-.787.787v3.146c0,3.7,2.79,5.534,9.649,5.534a25.849,25.849,0,0,0,3.8-.243,8.629,8.629,0,0,0-3.691,4.96h-.108C7.216,43.928,2,40.5,2,33.675V30.529a5.506,5.506,0,0,1,5.506-5.506Zm51.911,0a5.506,5.506,0,0,1,5.506,5.506v3.027c.367,6.887-4.754,10.373-13.944,10.373l-.529-.005a8.668,8.668,0,0,0-3.833-5.054,24,24,0,0,0,4.362.34c6.821,0,9.425-1.773,9.228-5.528V30.529a.786.786,0,0,0-.787-.787H45.952a12.742,12.742,0,0,0,.1-1.571,12.6,12.6,0,0,0-.4-3.146ZM33.461,18.731a9.438,9.438,0,1,1-9.438,9.438A9.438,9.438,0,0,1,33.461,18.731Zm0,4.719a4.719,4.719,0,1,0,4.719,4.719A4.719,4.719,0,0,0,33.461,23.45ZM16.158,3A9.438,9.438,0,1,1,6.72,12.438,9.438,9.438,0,0,1,16.158,3ZM50.765,3a9.438,9.438,0,1,1-9.438,9.438A9.438,9.438,0,0,1,50.765,3ZM16.158,7.719a4.719,4.719,0,1,0,4.719,4.719A4.719,4.719,0,0,0,16.158,7.719Zm34.608,0a4.719,4.719,0,1,0,4.719,4.719,4.719,4.719,0,0,0-4.719-4.719Z" transform="translate(-2 -3)" fill="#284158"/>
          </g>
        </g>
      </g>
    </g>
    <text id="headline" transform="translate(1624 2612)" fill="#273b60" font-size="25" font-family="TeXGyreAdventor-Bold, TeX Gyre Adventor" font-weight="700" letter-spacing="-0.02em"><tspan x="-99" y="0">Work together to </tspan><tspan x="-39" y="39">deliver</tspan></text>
  </g>
</svg>
