<svg xmlns="http://www.w3.org/2000/svg" xmlns:xlink="http://www.w3.org/1999/xlink" width="373" height="408" viewBox="0 0 373 408">
  <defs>
    <filter id="surface" x="0" y="0" width="373" height="408" filterUnits="userSpaceOnUse">
      <feOffset dx="8" dy="8" input="SourceAlpha"/>
      <feGaussianBlur stdDeviation="12" result="blur"/>
      <feFlood flood-color="#090e14" flood-opacity="0.4"/>
      <feComposite operator="in" in2="blur"/>
      <feComposite in="SourceGraphic"/>
    </filter>
  </defs>
  <g id="Group_165" data-name="Group 165" transform="translate(-807 -2726.004)">
    <g transform="matrix(1, 0, 0, 1, 807, 2726)" filter="url(#surface)">
      <rect id="surface-2" data-name="surface" width="301" height="336" rx="12" transform="translate(28 28)" fill="#fff"/>
    </g>
    <text id="headline" transform="translate(990 2993)" fill="#273b60" font-size="25" font-family="TeXGyreAdventor-Bold, TeX Gyre Adventor" font-weight="700" letter-spacing="-0.02em"><tspan x="-113" y="0">protect and restore </tspan><tspan x="-68" y="39">ecosystems</tspan></text>
    <g id="badge" transform="translate(928.553 2798.714)">
      <rect id="surface-3" data-name="surface" width="114" height="113" rx="48" transform="translate(-0.329 0.286)" fill="rgba(69,121,245,0.03)"/>
      <g id="icon">
        <rect id="frame" width="114" height="113" transform="translate(-0.329 0.286)" fill="none"/>
        <g id="Group_127" data-name="Group 127" transform="translate(-2501.403 -8753.135)">
          <path id="Path_66" data-name="Path 66" d="M83.1,183.264l-2.429,1.905c.607.469,1.22.887,1.775,1.374,6.253,5.489,8.683,12.369,6.688,20.428-1.959,7.941-7.281,12.816-15.2,14.817a19.255,19.255,0,0,1-6.294.4c-.724-.059-1.074-.419-1.008-.986.062-.542.415-.749,1.072-.765a37.9,37.9,0,0,0,5.068-.224A18.391,18.391,0,0,0,87.6,198.1a12.569,12.569,0,0,0-3.834,2.846c-.979,1.216-.813,2.631-.7,4.041a10.956,10.956,0,0,1,.168,3.248,8.032,8.032,0,0,1-5.645,6.056,2.689,2.689,0,0,1-3.613-1.913,13.992,13.992,0,0,1-.5-3.233c-.107-2.127-.1-4.26-.144-6.39v-.062c-.141-1.68-.284-1.779-1.944-1.59a29.614,29.614,0,0,1-4.314.374,5.1,5.1,0,0,1-4.863-5.939,7.456,7.456,0,0,1,2.656-4.628c.138-.124.28-.244.419-.368.013-.012.012-.038.039-.131a15.779,15.779,0,0,1-7.188-2.734,14.29,14.29,0,0,0-3.108,3.168c-.821,1.183-1.514,2.464-2.241,3.706a.665.665,0,0,0-.032.554c.681,1.229,1.424,2.423,2.08,3.663a3,3,0,0,0,2.07,1.694,6.475,6.475,0,0,1,1.5.57,2.348,2.348,0,0,1,1.3,2.957c-.352,1.117-.875,2.181-1.329,3.265a8.526,8.526,0,0,1-.372.784A3.036,3.036,0,0,0,58,211.381a8.066,8.066,0,0,1,.939,5.28.6.6,0,0,0,.336.7c1.075.574,2.135,1.173,3.216,1.733.614.319.832.695.624,1.217s-.675.678-1.3.4c-6.95-3.137-11.177-8.435-12.192-16.007-.939-7.086,1.453-13.061,6.753-17.863.076-.068.17-.117.421-.287a3.323,3.323,0,0,1-.486-.271,32.837,32.837,0,0,1-7.7-10.1.929.929,0,0,1,.184-1.237c4.074-3.5,8.543-6.247,13.909-7.263a14.926,14.926,0,0,1,12.437,3.231c.244.191.49.382.723.587a.832.832,0,0,1,.171,1.251.844.844,0,0,1-1.259.107c-1.018-.7-2-1.473-3.068-2.1a11.681,11.681,0,0,0-5.422-1.588H65.84c.158.235.255.38.359.523q3.431,4.68,6.873,9.353a1.326,1.326,0,0,0,.723.482c2.409.5,4.825.956,7.239,1.426a1.721,1.721,0,0,0,.329-.038l-2.983-4.278a3.828,3.828,0,0,1-.4-.554.788.788,0,0,1,.289-1.04.776.776,0,0,1,1.118.086,9.421,9.421,0,0,1,.921,1.173c1,1.544,1.975,3.1,2.959,4.656a1.793,1.793,0,0,0,.305.46c1.508,1.248,3.026,2.485,4.483,3.677-.066-.487-.16-1.108-.235-1.731a10.643,10.643,0,0,1,4.035-10,22.015,22.015,0,0,1,8.277-4.09.965.965,0,0,1,1.233.537,21.76,21.76,0,0,1,2.846,9.1,10.614,10.614,0,0,1-4.064,9.28,21.508,21.508,0,0,1-6.959,3.716c-.212.072-.425.147-.685.235.255.7.513,1.365.742,2.04A24.937,24.937,0,1,1,45.3,207.709a24.053,24.053,0,0,1-.321-9.43c.117-.733.447-1.016,1.044-.915.55.094.772.5.681,1.173a22.641,22.641,0,0,0,7.8,21.106A22,22,0,0,0,70.937,225.2a23.166,23.166,0,0,0,12.571-41.672C83.378,183.44,83.237,183.355,83.1,183.264Zm4.02,13.051a18.687,18.687,0,0,0-7.492-9.7.95.95,0,0,0-1.21,0,24.962,24.962,0,0,1-9.16,3.627,2.293,2.293,0,0,0-.821.218c-.578.352-1.129.764-1.674,1.173a6.815,6.815,0,0,0-2.669,3.4,3.537,3.537,0,0,0,3.468,4.745,13.261,13.261,0,0,0,1.607-.117c1.086-.135,2.168-.319,3.257-.44a1.918,1.918,0,0,1,2.033,1.124,3.683,3.683,0,0,1,.469,1.4c.126,1.978.167,3.961.264,5.942.059,1.2.1,2.4.264,3.581.2,1.379.939,1.76,2.214,1.173a6.869,6.869,0,0,0,3.755-4.081,3.449,3.449,0,0,0,.156-1.335,18.292,18.292,0,0,0-.268-1.9,6.544,6.544,0,0,1,3.118-7.132C85.309,197.436,86.188,196.9,87.121,196.315Zm-23.732-8.084a13.017,13.017,0,0,0,6.41.129,27.9,27.9,0,0,0,10.655-5.239c.14-.1.268-.225.426-.359a1.7,1.7,0,0,0-.228-.088c-2.432-.48-4.865-.964-7.3-1.422a1,1,0,0,0-.671.187c-.932.652-1.842,1.335-2.76,2.008Zm-6.133,27.5a7.026,7.026,0,0,0-.983-3.934,3.645,3.645,0,0,1-.176-3.755c.489-1.092,1.027-2.165,1.5-3.263.8-1.856.719-2.112-1.218-2.647a4.537,4.537,0,0,1-3.051-2.49c-.429-.864-.919-1.7-1.408-2.593A18.372,18.372,0,0,0,57.256,215.726Zm-.587-31.463a19.168,19.168,0,0,0,4.212,3.04.757.757,0,0,0,.939-.072C64,185.6,66.211,184,68.409,182.387l2.179-1.6a1.348,1.348,0,0,0-.265-.133c-2.187-.429-4.373-.86-6.564-1.271a.821.821,0,0,0-.57.123c-2.157,1.556-4.3,3.134-6.514,4.756Zm2.09-13.75c1.785,2.436,3.414,4.671,5.066,6.89a1.1,1.1,0,0,0,.628.322c1.232.259,2.464.493,3.705.73.834.16,1.67.311,2.655.494-2.374-3.237-4.639-6.336-6.923-9.419a.615.615,0,0,0-.516-.194C61.88,169.7,60.393,170.091,58.759,170.513ZM102.384,181.1a2.622,2.622,0,0,0-.271.074c-2.023.833-4.05,1.66-6.064,2.517a1.111,1.111,0,0,0-.5.555c-.759,1.76-1.494,3.538-2.229,5.309-.059.14-.092.29-.147.469a16.6,16.6,0,0,0,7.3-4.6,8.037,8.037,0,0,0,1.911-4.327Zm-10.959,8.368c.117-.249.205-.429.284-.616.655-1.559,1.291-3.127,1.971-4.673a1.6,1.6,0,0,0,.006-1.4c-.857-2-1.677-4.022-2.517-6.051-2.288,2.187-2.174,8.164.255,12.735Zm-36-6.46,5.671-4.157-10.107-1.972A32.879,32.879,0,0,0,55.428,183.013Zm43.559-11.558a18.834,18.834,0,0,0-6.559,3.748l2.482,6Zm-41.771-.087a32.383,32.383,0,0,0-5.936,3.793l10.165,1.976Zm43.377.771-3.925,9.395c1.944-.8,3.722-1.531,5.488-2.283a.576.576,0,0,0,.291-.442,19.1,19.1,0,0,0-1.853-6.67Z" transform="translate(2483.622 8612.711)" fill="#29445b" stroke="#29445b" stroke-linecap="round" stroke-linejoin="round" stroke-width="1"/>
        </g>
        <path id="Path_109" data-name="Path 109" d="M61.344,46.39,48.133,50.146l-2.461,6.606,2.461,2.979h6.476l2.2,2.461v6.347l.777,3.238h3.756l3.368-4.922-1.036-4.663,1.036-2.461,2.979-2.979,1.3-.648-1.3-5.181-4.015-2.85Z" fill="#29445b"/>
        <path id="Path_110" data-name="Path 110" d="M34.274,56.786l5.958,5.276-.907,12.693s-4.663-5.7-5.051-6.347-1.3-9.844-1.3-9.844Z" fill="#29445b"/>
      </g>
    </g>
  </g>
</svg>
