<svg xmlns="http://www.w3.org/2000/svg" xmlns:xlink="http://www.w3.org/1999/xlink" width="373" height="408" viewBox="0 0 373 408">
  <defs>
    <filter id="surface" x="0" y="0" width="373" height="408" filterUnits="userSpaceOnUse">
      <feOffset dx="8" dy="8" input="SourceAlpha"/>
      <feGaussianBlur stdDeviation="12" result="blur"/>
      <feFlood flood-color="#090e14" flood-opacity="0.4"/>
      <feComposite operator="in" in2="blur"/>
      <feComposite in="SourceGraphic"/>
    </filter>
  </defs>
  <g id="Group_166" data-name="Group 166" transform="translate(-1128 -2726.004)">
    <g id="Group_169" data-name="Group 169">
      <g transform="matrix(1, 0, 0, 1, 1128, 2726)" filter="url(#surface)">
        <rect id="surface-2" data-name="surface" width="301" height="336" rx="12" transform="translate(28 28)" fill="#fff"/>
      </g>
      <g id="badge" transform="translate(1250.329 2798.714)">
        <rect id="surface-3" data-name="surface" width="114" height="113" rx="48" transform="translate(-0.329 0.286)" fill="rgba(69,121,245,0.03)"/>
        <g id="icon">
          <rect id="frame" width="114" height="113" transform="translate(-0.329 0.286)" fill="none"/>
        </g>
      </g>
      <text id="headline" transform="translate(1307 3013)" fill="#273b60" font-size="25" font-family="TeXGyreAdventor-Bold, TeX Gyre Adventor" font-weight="700" letter-spacing="-0.02em"><tspan x="-129" y="0">secure global net zero</tspan></text>
    </g>
    <path id="Icon_metro-earth2" data-name="Icon metro-earth2" d="M33.354,63.494A30.783,30.783,0,1,1,64.136,32.711,30.784,30.784,0,0,1,33.354,63.494ZM58.3,30.131A.192.192,0,0,0,58.4,30a.938.938,0,0,0,.3.541c0,.019-.006.015,0,.042.015,0,.027-.012.04-.012a.93.93,0,0,0,.587.219.949.949,0,0,0,.8-.464.462.462,0,0,1,.04.046c0-.031-.006-.062-.01-.092a.933.933,0,0,0,.127-.452.964.964,0,0,0-.962-.962.95.95,0,0,0-.793.446c-.008-.006,0-.029-.021-.021a.87.87,0,0,0-.148-.46v1A1.006,1.006,0,0,1,58.3,30.131Zm-44.2-.289c0-.291-.662-.785-.833-.785,0-.052-.269-.645-.371-.645,0-.2-.7-1.1-.814-.706-.073.254.537.6.537.891.114,0,.591.9.685,1.062,1.043,1.762-.779.558-.779-.189a2.453,2.453,0,0,1-.6-1.245,3.978,3.978,0,0,1-.508-.966c0-.562-.31-.831-.925-.831-.029-.056-.546-.783-.556-.783a2.038,2.038,0,0,0-.646-1.06,7.458,7.458,0,0,1-.137-1.566,5.307,5.307,0,0,0-.2-1.647A26.848,26.848,0,0,0,24.111,57.986c.012-.954.083-2.1.3-2.1,0-.142.121-.739.231-.739a11.658,11.658,0,0,0,0-1.245c-.137-.275.181-.627.277-1.06.533-.267.156-2.949.558-2.949a18.276,18.276,0,0,0,.09-3.365c.1,0-.606-.752-.6-.739-.679,0-1.154-1.089-1.154-1.566a2.9,2.9,0,0,1-.233-.783c.156,0-.972-1.647-.972-1.614-.6-.331.033-.793.092-1.335-.518-.171.006-1.568.231-1.568a.434.434,0,0,1,.279-.367c.115.46.652-.229.231-.229,0-.3-.035-.954,0-1.106,0-.469-.416-1.389-.739-.416-.346-.171-1.22-.14-1.295-.691.054-.271-.5-.825-.693-.922.181-.473-.937-1.106-1.341-1.106,0-.1-.214-.056-.277-.185-.412,0-.506-.554-.972-.554-.537,0-1.077-.367-1.572-.367-.165-.329-.933-.2-1.11-.554-.4,0-.56-.762-.571-1.043-.017-.346-.292-1.543-.773-1.543ZM53.07,14.4a.1.1,0,0,1-.015.042c.029,0,.063.033.1.046C53.122,14.462,53.1,14.434,53.07,14.4Zm.579.637a.621.621,0,0,1,.1.327c.067,0,.1-.035.154-.048C53.822,15.224,53.732,15.136,53.649,15.04Zm1.672,8.765c.031-.831-.693-.693-.922-1.154-.239,0-.325-.185-.648-.185a.4.4,0,0,0-.5.15c-.494.189-.2-.24-.568-.24.017-.475-.171-.606-.695-.554-.3.677-.762,1.083-.693,1.845.221.05.183.1.139.321.294.015,2.08-.092,2.08-.277.062,0,.371.637.371.092.248,0,.379.583.972.414,0,.119.989-.412.46-.412Zm.094,9.818c.035-.169-.085-.244-.185-.416.264,0-.833-2.034-.833-2.351-.167-.083-.381-.664-.419-.875a2.21,2.21,0,0,1-.554-.922,3.342,3.342,0,0,1-.877-1.152c.331.037.831.1.831-.323-.223,0-.256-.275-.044-.275-.069-.283.15-.487.2-.708a5.217,5.217,0,0,0,.171-1,1.524,1.524,0,0,0-.646.139c0,.187-.564-.046-.646-.046-.121-.242-1,.316-1.247-.185-.4-.36-.291-.637-.419-1.145-.065-.258-.417-.273-.631-.316-.6-.117-.167.718-.2.908.369,0-.233.458-.233.691-.623-.135-.416-.829-.783-1.014-.11-.185-.023-.323-.279-.323,0-.246.131-.693-.139-.783,0-.119-.523-.167-.6-.323-.331,0-1.1-1.251-1.337-.829-.148.269.125.335.181.554.479-.094.433.789,1.018.691a1.6,1.6,0,0,0,.044.369c.433-.1.383.321.6.321-.158.21-.658-.335-.521.123.079.266.035.493-.31.752,0-.287-.023-1.06-.323-1.06-.2-.408-.81-.31-1.066-.691-.208,0-.289-.646-.646-.691a.722.722,0,0,1-.417.185c-.194.391-1.293.04-1.293.092-.017,0-.616,1.466-.65,1.658-.067.414-.4.421-.5.814-.05.2-1.256.1-1.256.248a1.23,1.23,0,0,1-.972-1.106,8.679,8.679,0,0,1,.187-1.66c.106.029.127.065.187.185.319-.119,1.064.079,1.064-.277q.465.012.277.369c.289.054.787.127.787-.277-.169,0-.187-.015-.187-.185.554-.575-.416-1.095-.416-1.381-.2-.065-.6-.491-.312-.331.24.133,1.12.408.773-.177a.064.064,0,0,0,.044-.044c.1.069.512.494.512.092.114,0,.552-.277.185-.277.035-.208.027-.381.044-.508.587.316.26-.215.556-.414,0,.383.316-.185.508-.185.229-.341.752-.077.879-.462-.283-.092-.231-.8-.231-1.058.341.056.72-.46.771-.106.019.137.037.514.106.566.506.266.371-.152.371-.414-.169,0-.394-.593-.417-.877-.139.019-.362.077-.417.183-.5,0-.847-.183-1.247-.183a7.148,7.148,0,0,1-.462-.6c-.281-.483.281-.342.369-.366,0-.458,1.907-.377,1.989-1.108-.627,0,.646-1.062.646-1.058.425-.364.65-.677,1.179-.718.223-.015,2.705-.7,2.705-.391.1,0,.431.008.773.019a26.816,26.816,0,0,0-36.151-.417.681.681,0,0,1,.073.254c.252-.017.614-.179.695.14a1.581,1.581,0,0,1-.369-.048c.089.714-.312.277-.646.277a.93.93,0,0,0-.306-.119c-.1.1-.21.187-.312.283.012.031-.006.033.013.067.108,0,.052.167.36.269a6.857,6.857,0,0,0,1.122.248,3.571,3.571,0,0,0,.739-.056c0-.038.635-.321.187-.321.062-.254-.052-.317-.325-.321.023-.269.664-.092.925-.092.2-.337.006-.3.183-.6.212-.375.464-.05.6-.41a.645.645,0,0,1,.464.456c.167.139,1.018,1.393,1.018.506.3.1.456.671.462.97.552-.081.6-.494.6-.923.127,0-.046-.206-.046-.277.206-.075.464.2.464-.09.089,0,.092.089.092.185.287.056.471-.033.646.029.121.042.06.671,0,.893-.069.281-.606.285-.606.416-.608.454.718.691.925.968a2.557,2.557,0,0,1-.6-.09c-.3,0-1.027.317-1.295.09.373,0,.5-.448.556-.875a.661.661,0,0,0-.847.425c-.162.566-.537-.023-.725.358-.073.023-.741.333-.741.229-.75.106-.554.743-.554,1.429.3.179.9.689.877.968.673.119.92.19,1.526.277a.735.735,0,0,0,.371.229c0,.4.36.325.693.325,0-.506.589.421.646.6-.081,0,.139.518.185.693-.092-.033-.121,0-.092.092.292.108.756.077.833-.231-.281,0-.187-.321-.187-.508a.347.347,0,0,1,.046-.645c0,.262.952-.164.416-.367a1.037,1.037,0,0,0,.006-1c-.137-.162-.308,0-.375-.242.364-.09.1-.783.092-1.106.115-.044.416.073.416,0,.356,0,.948.45,1.156-.094.594.271.121.529.741.323a2.671,2.671,0,0,0,.787.829c0,.033-.017.231.137.231,0,.148-.092-.085-.092.183.087.01.556.094.556-.09.3,0,.508-.366.508-.645.187-.121.514,1.014.739,1.014.165.258.695.633.695.875.112.114.229.083.229.416.14,0,.417-.552.417-.046a.875.875,0,0,1,.556.506c-.333,0-.017.323-.189.323,0,.319-.714.065-.875.046-.221.991-1.556.279-2.365.535a2.755,2.755,0,0,0-1.291,1.539c.516.006.743-.446,1.2-.6.375,0,.448-.227.787-.321,0,.094.092.044.092.139-.658,0-.258.425-.065.735a.793.793,0,0,0,.408.344,1.831,1.831,0,0,0-.156.348s0,0,0,0c-.125.042-.369.133-.417.231-.745.083-.377.033-.327-.146.027.063.294.006.283.008-.044-.223-.112-.192-.046-.321-.4,0-.6.185-.925.185-.054.11-.337.369-.462.369a2.188,2.188,0,0,1-.556.968c0-.075-.658.414-.6.414-.146.237-.306.229-.371.6a3.1,3.1,0,0,0-.231.737c-.287.19-.392.968-.879.968-.3.593-.833.514-.833,1.291a4.061,4.061,0,0,1,.306,1.264c.069.325.177.664-.258.671-.031-.048-.335-.508-.279-.508a2.933,2.933,0,0,0-.369-.991c-.183-.256-.521.04-.787-.071-.114-.227-.881-.277-1.154-.277.044.171.169.225.185.416a1.049,1.049,0,0,1-.593.164c-.4-.056-.354-.369-.8-.325a1.336,1.336,0,0,0-1.2,1.36,4.073,4.073,0,0,0,0,1.383c0,.391.323.673.323.968.314,0,.666.691.972.691.035.244-.154.283.369.279,0-.027.285-.179.323-.369-.362-.089,0-.554.231-.645,0,.329.462-.11.462-.139.052-.021.51-.185.51-.185,0-.373.348.037.092.185-.25,0-.231.416-.369.416-.06.3-.177.554-.246.843-.089.356.2.392.108.725a5.784,5.784,0,0,0,1.11,0,.327.327,0,0,0-.046-.185c.537,0,.046,1.014.371,1.014,0,.383.185.681.185.922a.613.613,0,0,1,.323.691c.308.04.97.119.97-.277.468,0,.5.317.466.645.931,0,.348-.922.737-.922.037-.152.1-.179.19-.079.19.1.335-.19.487-.283a1.253,1.253,0,0,1,.248-.131c.131.079.142.056.2.144a1.386,1.386,0,0,0,.727-.294c.333.04.225.756.848.8a2.214,2.214,0,0,0,1.045-.062c.054-.037.252.125.273.194.208,0,.192.181.281.177a.075.075,0,0,0,.094.044c.027.079.192.1.279.321,0,.2.416.235.416.367.3.15-.1.19.356.329a3.323,3.323,0,0,0,.756.225c.087-.329.367.044.51.044.073.15.112.037.183.185.429.358.146.219.323.6.206.135.271.6.327.875-.165,0-.048.633-.048.693-.2,0,.512.379.512-.094.292.048.485.367.693.367-.121.279.323.489.323.048.439.044.321.7.279.922.325,0,.419-.181.7-.215a1.881,1.881,0,0,1,1.014-.329A1.922,1.922,0,0,1,37.2,42.331a1.9,1.9,0,0,1-1.631,1.864,3.367,3.367,0,0,1-.242.262c0,.092-.021,1.012-.048,1.012,0,.185-.14,1.2-.277,1.2,0,.521-.341.616-.462,1.106-.281.208-1.041.554-1.158.783-.217,0-.379.185-.6.185-.031.063-.5.508-.417.508-.035.327.025,1.1-.152,1.312-.119.142-.291.127-.215.35-.26,0,.015.185-.394.185a.915.915,0,0,0-.731.679,1.025,1.025,0,0,1-.446.889c0,.131-.6.169-.6.508.056,0,0,.627,0,.691a1.093,1.093,0,0,0-.693.321c-.6,0-.531.062-.923.323,0,.081-.056.367-.139.367,0,.468-.333.042-.6.279.106,0,.24.46.185.46,0,.406-.252.441-.508.739-.121.081-.237.416-.323.416,0,.273-.137.521-.137.783.058,0,0,.117.044.227.129-.037.133-.183.185-.183,0-.231.367.137.139.137-.19.289-.4.294-.51.693-.115,0-.215.112-.3.242a26.777,26.777,0,0,0,29.7-11.32,7.382,7.382,0,0,1,.21-1.556c.189.139.329.4.462,0-.333-.065-.252-.181-.139-.46a1.167,1.167,0,0,0,.591.158c.063-.119.114-.246.177-.366-.189-.146.071-.525.162-.341.048-.092.09-.189.135-.281-.021-.006-.015.008-.046,0,0-.167.031-.146.14-.231a.17.17,0,0,0,0,.033,26.794,26.794,0,0,0,2.649-11.59c0-.137-.019-.267-.021-.4-.05.189-.144.392-.277.439,0,.121-1.376.72-1.293.968-.242,0-1.093.242-1.249.552a2.146,2.146,0,0,0-.925.369c-.858,0-.695-1.012-1.108-1.012Zm3.911-10.532H58.305c-.008-.01-.015-.012-.023-.025-.052,0-.269-.489-.185-.6a1.366,1.366,0,0,1,.165.012c-.087-.212-.181-.419-.275-.629a1.329,1.329,0,0,1-.677.341c0,.079-.41.875,0,.875a.14.14,0,0,0,.012.04.957.957,0,0,0,.081,1.91h.379c.023.175.117.327.454.4.106.444.9.6,1.018.137-.335,0-.225-.321-.2-.539h.269a.962.962,0,1,0,0-1.924ZM56.524,35.6c.067,0,.512-.008.512-.087a4.7,4.7,0,0,0,1.341-.187c0,.6-.5.929-.417,1.522-.333,0-.187.342-.187.46-.215.133-.248.375-.508.508,0,.267-.6.71-.777.939-.2.256-.8.7-.881,1.025.021-.077-1.1,1.168-.839,1.168,0,.233-.316,2.074.092,2.074,0,.162.348,1.707.137,1.707,0,.5-.323.8-.323,1.2-.158.108-.383.167-.462.325-.283,0-.419.6-.554.6,0,.641-.187,1.116-.187,1.843.052,0-.369,1.037-.369,1.1-.341.229-1.2,1.05-1.2,1.478,0,0-.6.843-.693.968a5.956,5.956,0,0,0-1.574.369c-.3,0-1.062.233-1.247-.046,0-.292-.16-.664-.185-1.062-.142,0-.165-.6-.323-.6a15.9,15.9,0,0,1-.741-1.891,3.1,3.1,0,0,0-.185-.783c0-.635-.464-1.164-.464-1.751-.137,0-.419-1.289-.277-1.289a14.454,14.454,0,0,1,.335-1.872,4.453,4.453,0,0,0-.2-1.91c-.079,0-.344-.441-.371-.552a1.4,1.4,0,0,1-.508-1.2A3.118,3.118,0,0,0,45.749,38a2.066,2.066,0,0,0-1.158-.139c-.3-.6-2.3-.229-2.869-.229,0,.327-1.395-.063-1.526-.323-.341,0-1.016-.723-1.016-1.06a3.8,3.8,0,0,1-.97-1.889c-.323-.162-.225-.785-.048-.785a3.288,3.288,0,0,0-.189-.979c-.056-.194.189-.4.189-.635a2.78,2.78,0,0,1,.375-1.626,6.284,6.284,0,0,0,.364-.687c.192-.483.25-.023.51-.454.248-.123.392-.535.648-.737.112-.148.115-.21,0-.323a2.776,2.776,0,0,0,.323-.873c.362-.5.106-.273.462-.231.131-.142.348-.508.554-.508a.584.584,0,0,1,.51-.277c0,.277.754-.09.833-.09A2.129,2.129,0,0,1,43.9,25.6c0-.316,1.639.089,1.9.046V25.51c.35.083.989,1.487.923,1.8a3.6,3.6,0,0,1,.695,0c0,.3.562.371.818.385.356.017,1.4-.037,1.4-.523a.432.432,0,0,1,.466.506c.312.035,2.164.071,2.034.46.271,0,.341.464.6.464-.052.319.323,1.152.6,1.152a1.451,1.451,0,0,0,.417.966,3.375,3.375,0,0,0,.97,1.476c-.173.327.264.6.371.922-.025,0,.094.483.229.554,0,.327.689,1.66,1.066,1.66.025.162-.354.235.139.271ZM46.536,25.279c.071-.275.233-.062.383-.012.356.115.233-.006.5-.125C47.416,25.892,46.985,25.323,46.536,25.279ZM45.563,23.9c.189,0,.24.847-.277.691,0-.21-.133-.6.14-.6.079.327.137.194.137-.092Zm-.229-.552c.214.092.308.062.277-.092.281.092-.037.292-.092.508C45.374,23.616,45.419,23.566,45.334,23.343Zm-4.95-4.1c-.454-.117.468-.252.508-.367a.215.215,0,0,1-.2-.294c.069-.16.183.19.341.112.187-.019.554-.3.366.24s-.367.947-1.06.956c-.248-.25-.01-.381.046-.646ZM42.1,17.35c.373,0,.046.277-.037.277.063.025-.012.248-.012.321.346,0,.352-.215.6-.277-.052.31-.4.369-.06.635.179.14.362.306.291.519.441,0,.506.423.416.922.244,0,.233.012.233-.233.237.065.219.279,0,.279-.219.433-.795.414-1.2.414,0-.335-.067-.356-.377-.262-.423.129-.092-.337-.085-.568.046,0,.96.042.416-.139-.029-.5-.14-.645-.6-.645,0-.339-.119-.314-.175-.685-.079-.548.429.038.593-.56Zm-.14,3c0,.114-.231.2-.277.044.044.015.062,0,.044-.044ZM38.163,15.4H36.239a.962.962,0,0,1,0-1.924h1.924a.962.962,0,0,1,0,1.924ZM26.955,32.422c.108,0,.233.042.233.139C27.047,32.561,26.866,32.694,26.955,32.422Zm-1.755.094c-.077.146-.7.121-.787-.048.231,0,.41.094.646,0,0-.127-.106-.229-.185-.367.252,0,.535.192.879.185,0-.214-.094.046,0-.231a1.08,1.08,0,0,1,.508.506,6.862,6.862,0,0,0-1.062-.044ZM23.164,31.41a1.3,1.3,0,0,1-.833-.416c.229.01.456.1.6-.139.587.06.639.464,1.11.464.089.156.593.514.106.56a1.069,1.069,0,0,1-.983-.469Zm.369,1.291c-.171,0-.454.075-.323-.279C23.438,32.453,23.545,32.547,23.534,32.7Zm.323-.046-.277.046C23.607,32.488,23.809,32.249,23.857,32.655Zm1.71,2.026c-.037.129-.031.137-.183.137.015-.06.029-.119.044-.183Zm-4.161-3.825c.044.015.092.033.139.046.06.229.185.115.323.046C21.868,31.216,21.248,31.293,21.406,30.856Z" transform="translate(1273.43 2823.072)" fill="#29445b"/>
  </g>
</svg>
